<?xml version="1.0" encoding="UTF-8" standalone="no"?>
<!-- Created with Inkscape (http://www.inkscape.org/) -->

<svg
   xmlns:dc="http://purl.org/dc/elements/1.1/"
   xmlns:cc="http://creativecommons.org/ns#"
   xmlns:rdf="http://www.w3.org/1999/02/22-rdf-syntax-ns#"
   xmlns:svg="http://www.w3.org/2000/svg"
   xmlns="http://www.w3.org/2000/svg"
   xmlns:sodipodi="http://sodipodi.sourceforge.net/DTD/sodipodi-0.dtd"
   xmlns:inkscape="http://www.inkscape.org/namespaces/inkscape"
   width="265.77884"
   height="124.9995"
   id="svg4207"
   version="1.1"
   inkscape:version="0.48.4 r9939"
   sodipodi:docname="New document 8">
  <defs
     id="defs4209" />
  <sodipodi:namedview
     id="base"
     pagecolor="#ffffff"
     bordercolor="#666666"
     borderopacity="1.0"
     inkscape:pageopacity="0.0"
     inkscape:pageshadow="2"
     inkscape:zoom="1.979899"
     inkscape:cx="166.39325"
     inkscape:cy="23.797488"
     inkscape:document-units="px"
     inkscape:current-layer="layer1"
     showgrid="false"
     fit-margin-top="0"
     fit-margin-left="0"
     fit-margin-right="0"
     fit-margin-bottom="0"
     inkscape:window-width="1366"
     inkscape:window-height="711"
     inkscape:window-x="0"
     inkscape:window-y="32"
     inkscape:window-maximized="1" />
  <metadata
     id="metadata4212">
    <rdf:RDF>
      <cc:Work
         rdf:about="">
        <dc:format>image/svg+xml</dc:format>
        <dc:type
           rdf:resource="http://purl.org/dc/dcmitype/StillImage" />
        <dc:title></dc:title>
      </cc:Work>
    </rdf:RDF>
  </metadata>
  <g
     inkscape:label="Layer 1"
     inkscape:groupmode="layer"
     id="layer1"
     transform="translate(-51.19608,-887.291)">
    <path
       inkscape:connector-curvature="0"
       id="path3553"
       style="fill:#464646;fill-opacity:1;fill-rule:nonzero;stroke:none"
       d="m 88.76733,929.29175 -8.0425,41.22375 c 0.69875,0.0913 3.41125,0.1375 4.13125,0.1375 9.83625,0.09 18.3375,0.0712 24.54625,-2.68125 6.71375,-2.97125 10.95375,-8.48875 12.88,-19.94125 1.57,-9.61875 -0.52875,-14.8025 -5.9975,-16.92125 -2.4325,-0.9425 -4.94875,-1.4175 -8.02,-1.76 -3.7025,-0.415 -8.375,-0.1075 -12.87625,-0.0575 -1.1475,0.0913 -6.62125,0 -6.62125,0 m 22.92375,-15.75 c 12.09375,0 20.9575,3.25 26.59,9.38625 5.6275,6.1375 7.66375,14.54125 6.10375,25.16875 -0.63875,4.85625 -2.085,9.62875 -4.32875,14.30125 -2.24875,4.67125 -5.42875,8.8925 -9.55,12.6475 -5.0375,4.7625 -10.45,7.79 -16.245,9.07125 -5.79375,1.2825 -11.8225,1.92625 -18.08375,1.92625 l -18.48125,0 -5.09375,26.2475 -21.40625,0 19.22125,-98.74875 41.27375,0 z" />
    <path
       inkscape:connector-curvature="0"
       id="path3557"
       style="fill:#464646;fill-opacity:1;fill-rule:nonzero;stroke:none"
       d="m 185.23958,887.291 -5.1225,26.25125 19.09875,0 c 10.435,0.41625 18.29875,2.15125 23.59,5.8125 5.2925,3.66625 6.9875,10.65 5.0875,20.91 l -8.92625,45.77875 -21.56,0 8.52625,-43.69875 c 0.89125,-4.5775 0.5,-7.8325 -1.1775,-9.755 -1.67875,-1.925 -5.1825,-3.07625 -10.625,-3.07625 l -17.0575,-0.2425 -11.08125,56.7725 -21.2525,0 19.2475,-98.7525 21.2525,0 z" />
    <path
       inkscape:connector-curvature="0"
       id="path3561"
       style="fill:#464646;fill-opacity:1;fill-rule:nonzero;stroke:none"
       d="m 260.85233,929.29175 -8.045,41.22375 c 0.69875,0.0913 3.41375,0.1375 4.13125,0.1375 9.83875,0.09 18.34,0.0712 24.54875,-2.68125 6.71125,-2.97125 10.95375,-8.48875 12.87875,-19.94125 1.56875,-9.61875 -0.53,-14.8025 -5.9975,-16.92125 -2.43125,-0.9425 -4.9475,-1.4175 -8.01875,-1.76 -3.70375,-0.415 -8.3775,-0.1075 -12.87625,-0.0575 -1.15,0.0913 -6.62125,0 -6.62125,0 m 22.9225,-15.75 c 12.095,0 20.9575,3.25 26.58875,9.38625 5.6275,6.1375 7.66375,14.54125 6.10375,25.16875 -0.6375,4.85625 -2.0825,9.62875 -4.32875,14.30125 -2.24625,4.67125 -5.42625,8.8925 -9.5475,12.6475 -5.0375,4.7625 -10.4525,7.79 -16.2475,9.07125 -5.79125,1.2825 -11.82125,1.92625 -18.08375,1.92625 l -18.47875,0 -5.09375,26.2475 -21.40875,0 19.22375,-98.74875 41.2725,0 z" />
  </g>
</svg>
