<?xml version="1.0" encoding="UTF-8" standalone="no"?>
<!-- Created with Inkscape (http://www.inkscape.org/) -->

<svg
   xmlns:dc="http://purl.org/dc/elements/1.1/"
   xmlns:cc="http://creativecommons.org/ns#"
   xmlns:rdf="http://www.w3.org/1999/02/22-rdf-syntax-ns#"
   xmlns:svg="http://www.w3.org/2000/svg"
   xmlns="http://www.w3.org/2000/svg"
   xmlns:sodipodi="http://sodipodi.sourceforge.net/DTD/sodipodi-0.dtd"
   xmlns:inkscape="http://www.inkscape.org/namespaces/inkscape"
   width="1200.8396"
   height="564.77161"
   id="svg4207"
   version="1.1"
   inkscape:version="0.48.4 r9939"
   sodipodi:docname="php.svg">
  <defs
     id="defs4209" />
  <sodipodi:namedview
     id="base"
     pagecolor="#ffffff"
     bordercolor="#666666"
     borderopacity="1.0"
     inkscape:pageopacity="0.0"
     inkscape:pageshadow="2"
     inkscape:zoom="0.24748737"
     inkscape:cx="1333.2204"
     inkscape:cy="-69.170839"
     inkscape:document-units="px"
     inkscape:current-layer="layer1"
     showgrid="false"
     fit-margin-top="0"
     fit-margin-left="0"
     fit-margin-right="0"
     fit-margin-bottom="0"
     inkscape:window-width="1366"
     inkscape:window-height="711"
     inkscape:window-x="0"
     inkscape:window-y="32"
     inkscape:window-maximized="1" />
  <metadata
     id="metadata4212">
    <rdf:RDF>
      <cc:Work
         rdf:about="">
        <dc:format>image/svg+xml</dc:format>
        <dc:type
           rdf:resource="http://purl.org/dc/dcmitype/StillImage" />
        <dc:title></dc:title>
      </cc:Work>
    </rdf:RDF>
  </metadata>
  <g
     inkscape:label="Layer 1"
     inkscape:groupmode="layer"
     id="layer1"
     transform="translate(-92.782575,-117.88194)">
    <path
       inkscape:connector-curvature="0"
       id="path3553"
       style="fill:#ffffff;fill-opacity:1;fill-rule:nonzero;stroke:none"
       d="m 262.53668,307.64936 -36.33756,186.25677 c 3.15708,0.41244 15.41268,0.62125 18.66578,0.62125 44.44206,0.4066 82.85233,0.32163 110.90465,-12.11443 30.33401,-13.42462 49.49114,-38.35377 58.19431,-90.09833 7.09355,-43.45936 -2.389,-66.88054 -27.09786,-76.45345 -10.9905,-4.25839 -22.35939,-6.40454 -36.23589,-7.95202 -16.72861,-1.87504 -37.83985,-0.4857 -58.17736,-0.25979 -5.18463,0.41251 -29.91607,0 -29.91607,0 m 103.57388,-71.1615 c 54.64188,0 94.68999,14.68411 120.1387,42.40885 25.42613,27.73041 34.6263,65.70016 27.57791,113.71722 -2.88599,21.94147 -9.42042,43.50458 -19.55812,64.61578 -10.16028,21.10561 -24.52813,40.178 -43.14872,57.14382 -22.76039,21.51779 -47.2151,35.1967 -73.39802,40.98573 -26.17726,5.79455 -53.41631,8.70306 -81.70584,8.70306 l -83.50183,0 -23.01453,118.59124 -96.717535,0 86.845295,-446.1657 186.48269,0 z"
       inkscape:export-filename="/home/sergio/Pictures/Logos/path3561.png"
       inkscape:export-xdpi="90"
       inkscape:export-ydpi="90" />
    <path
       inkscape:connector-curvature="0"
       id="path3557"
       style="fill:#ffffff;fill-opacity:1;fill-rule:nonzero;stroke:none"
       d="m 698.41675,117.88194 -23.14443,118.60817 86.2918,0 c 47.14733,1.88069 82.67725,9.71976 106.58413,26.26199 23.91253,16.56481 31.57087,48.11873 22.98631,94.47536 l -40.33051,206.83715 -97.41221,0 38.52323,-197.4393 c 4.02684,-20.68202 2.25909,-35.38873 -5.32016,-44.07496 -7.58492,-8.69752 -23.41553,-13.89908 -48.0058,-13.89908 l -77.06904,-1.09566 -50.0672,256.509 -96.02286,0 86.96388,-446.18267 96.02286,0 z"
       inkscape:export-filename="/home/sergio/Pictures/Logos/path3561.png"
       inkscape:export-xdpi="90"
       inkscape:export-ydpi="90" />
    <path
       inkscape:connector-curvature="0"
       id="path3561"
       style="fill:#ffffff;fill-opacity:1;fill-rule:nonzero;stroke:none"
       d="m 1040.0497,307.64936 -36.3489,186.25677 c 3.157,0.41244 15.424,0.62125 18.6657,0.62125 44.4534,0.4066 82.8637,0.32163 110.916,-12.11443 30.3227,-13.42462 49.4912,-38.35377 58.1887,-90.09833 7.0879,-43.45936 -2.3947,-66.88054 -27.0978,-76.45345 -10.9849,-4.25839 -22.3538,-6.40454 -36.2303,-7.95202 -16.7343,-1.87504 -37.8511,-0.4857 -58.1774,-0.25979 -5.1959,0.41251 -29.916,0 -29.916,0 m 103.5682,-71.1615 c 54.6475,0 94.69,14.68411 120.133,42.40885 25.4261,27.73041 34.6263,65.70016 27.578,113.71722 -2.8804,21.94147 -9.4092,43.50458 -19.5582,64.61578 -10.149,21.10561 -24.5168,40.178 -43.1374,57.14382 -22.7604,21.51779 -47.2264,35.1967 -73.4093,40.98573 -26.1659,5.79455 -53.4107,8.70306 -81.7059,8.70306 l -83.49048,0 -23.01459,118.59124 -96.7288,0 86.85655,-446.1657 186.47712,0 z"
       inkscape:export-xdpi="90"
       inkscape:export-ydpi="90" />
  </g>
</svg>
