<?xml version="1.0" encoding="UTF-8" standalone="no"?>
<!-- Created with Inkscape (http://www.inkscape.org/) -->

<svg
   xmlns:dc="http://purl.org/dc/elements/1.1/"
   xmlns:cc="http://creativecommons.org/ns#"
   xmlns:rdf="http://www.w3.org/1999/02/22-rdf-syntax-ns#"
   xmlns:svg="http://www.w3.org/2000/svg"
   xmlns="http://www.w3.org/2000/svg"
   xmlns:sodipodi="http://sodipodi.sourceforge.net/DTD/sodipodi-0.dtd"
   xmlns:inkscape="http://www.inkscape.org/namespaces/inkscape"
   width="641.02893"
   height="326.375"
   id="svg5095"
   version="1.1"
   inkscape:version="0.48.4 r9939"
   sodipodi:docname="odc-white.svg">
  <defs
     id="defs5097" />
  <sodipodi:namedview
     id="base"
     pagecolor="#ffffff"
     bordercolor="#666666"
     borderopacity="1.0"
     inkscape:pageopacity="0.0"
     inkscape:pageshadow="2"
     inkscape:zoom="0.49497475"
     inkscape:cx="965.715"
     inkscape:cy="-80.62786"
     inkscape:document-units="px"
     inkscape:current-layer="layer1"
     showgrid="false"
     fit-margin-top="0"
     fit-margin-left="0"
     fit-margin-right="0"
     fit-margin-bottom="0"
     inkscape:window-width="1366"
     inkscape:window-height="711"
     inkscape:window-x="0"
     inkscape:window-y="32"
     inkscape:window-maximized="1" />
  <metadata
     id="metadata5100">
    <rdf:RDF>
      <cc:Work
         rdf:about="">
        <dc:format>image/svg+xml</dc:format>
        <dc:type
           rdf:resource="http://purl.org/dc/dcmitype/StillImage" />
        <dc:title></dc:title>
      </cc:Work>
    </rdf:RDF>
  </metadata>
  <g
     inkscape:label="Layer 1"
     inkscape:groupmode="layer"
     id="layer1"
     transform="translate(16.077964,-286.657)">
    <path
       inkscape:connector-curvature="0"
       style="fill:#ffffff"
       d="M 624.95045,607.19868 C 624.97929,430.14698 481.48795,286.657 304.43624,286.657 c -177.0517,0 -320.514204,143.48998 -320.514204,320.51422 0,2.0082 0.550045,3.82379 0.57744,5.83199 H 233.15861 c -0.16508,-1.95313 -0.57743,-3.85133 -0.57743,-5.83199 0,-39.69636 32.18625,-71.88254 71.85506,-71.88254 13.09455,0 25.22627,3.76878 35.78995,9.87588 l 171.05461,-153.1183 6.54728,6.38218 -151.74289,172.32009 c 6.32726,10.72871 10.23358,23.0805 10.23358,36.42269 0,1.98066 -0.44047,3.87886 -0.57743,5.83199 H 624.318 v 0.0288 c 0.0829,-2.03575 0.63295,-3.82387 0.63295,-5.83208 z M 62.737022,584.42074 H 33.411804 c -6.987457,0 -12.654445,-5.63946 -12.654445,-12.51682 0,-7.01493 5.666988,-12.6269 12.654445,-12.6269 h 29.325218 c 6.959912,0 12.626901,5.63944 12.626901,12.6269 0,6.87736 -5.666989,12.51682 -12.626901,12.51682 z M 317.06314,361.92322 c 0,6.93245 -5.58444,12.59937 -12.5719,12.59937 -6.98745,0 -12.6269,-5.66692 -12.6269,-12.59937 v -29.38023 c 0,-6.93245 5.63945,-12.57189 12.6269,-12.57189 6.98746,0 12.5719,5.63944 12.5719,12.57189 v 29.38023 z m 258.56263,222.49752 h -29.38029 c -6.98739,0 -12.6269,-5.63946 -12.6269,-12.51682 0,-7.01493 5.63951,-12.6269 12.6269,-12.6269 h 29.38029 c 6.90491,0 12.59936,5.63944 12.59936,12.6269 0,6.87736 -5.69445,12.51682 -12.59936,12.51682 z"
       id="path5029" />
    <g
       transform="translate(279.77757,503.56833)"
       id="g5031" />
    <g
       transform="translate(279.77757,503.56833)"
       id="g5033" />
    <g
       transform="translate(279.77757,503.56833)"
       id="g5035" />
    <g
       transform="translate(279.77757,503.56833)"
       id="g5037" />
    <g
       transform="translate(279.77757,503.56833)"
       id="g5039" />
    <g
       transform="translate(279.77757,503.56833)"
       id="g5041" />
    <g
       transform="translate(279.77757,503.56833)"
       id="g5043" />
    <g
       transform="translate(279.77757,503.56833)"
       id="g5045" />
    <g
       transform="translate(279.77757,503.56833)"
       id="g5047" />
    <g
       transform="translate(279.77757,503.56833)"
       id="g5049" />
    <g
       transform="translate(279.77757,503.56833)"
       id="g5051" />
    <g
       transform="translate(279.77757,503.56833)"
       id="g5053" />
    <g
       transform="translate(279.77757,503.56833)"
       id="g5055" />
    <g
       transform="translate(279.77757,503.56833)"
       id="g5057" />
    <g
       transform="translate(279.77757,503.56833)"
       id="g5059" />
  </g>
</svg>
