<?xml version="1.0" encoding="iso-8859-1"?>
<!-- Generator: Adobe Illustrator 18.1.1, SVG Export Plug-In . SVG Version: 6.00 Build 0)  -->
<svg version="1.1" id="Capa_1" xmlns="http://www.w3.org/2000/svg" xmlns:xlink="http://www.w3.org/1999/xlink" x="0px" y="0px"
	 viewBox="0 0 23.302 23.302" style="enable-background:new 0 0 23.302 23.302;" xml:space="preserve">
<g>
	<g>
		<path style="fill:#010002;" d="M23.302,17.371c0.001-6.436-5.215-11.652-11.651-11.652S0,10.935,0,17.37
			c0,0.073,0.02,0.139,0.021,0.212H9.06c-0.006-0.071-0.021-0.14-0.021-0.212c0-1.443,1.17-2.613,2.612-2.613
			c0.476,0,0.917,0.137,1.301,0.359L19.17,9.55l0.238,0.232l-5.516,6.264c0.23,0.39,0.372,0.839,0.372,1.324
			c0,0.072-0.016,0.141-0.021,0.212h9.036v0.001C23.282,17.509,23.302,17.444,23.302,17.371z M2.865,16.543H1.799
			c-0.254,0-0.46-0.205-0.46-0.455c0-0.255,0.206-0.459,0.46-0.459h1.066c0.253,0,0.459,0.205,0.459,0.459
			C3.324,16.338,3.118,16.543,2.865,16.543z M12.11,8.455c0,0.252-0.203,0.458-0.457,0.458s-0.459-0.206-0.459-0.458V7.387
			c0-0.252,0.205-0.457,0.459-0.457s0.457,0.205,0.457,0.457V8.455z M21.509,16.543h-1.068c-0.254,0-0.459-0.205-0.459-0.455
			c0-0.255,0.205-0.459,0.459-0.459h1.068c0.251,0,0.458,0.205,0.458,0.459C21.967,16.338,21.76,16.543,21.509,16.543z"/>
	</g>
</g>
<g>
</g>
<g>
</g>
<g>
</g>
<g>
</g>
<g>
</g>
<g>
</g>
<g>
</g>
<g>
</g>
<g>
</g>
<g>
</g>
<g>
</g>
<g>
</g>
<g>
</g>
<g>
</g>
<g>
</g>
</svg>
